<svg xmlns="http://www.w3.org/2000/svg" xmlns:xlink="http://www.w3.org/1999/xlink" version="1.1" x="0px" y="0px" viewBox="0 0 100 125" enable-background="new 0 0 100 100" xml:space="preserve"><g><circle fill="#e49695" cx="44.251" cy="21.706" r="1.394"/><circle fill="#e49695" cx="54.331" cy="21.706" r="1.394"/><path fill="#e49695" d="M91.584,24.996h-0.027c-0.041-0.104-0.076-0.21-0.117-0.313c-0.094-0.235-0.234-0.415-0.399-0.555   c-0.192-0.36-0.565-0.598-1.126-0.523c-0.633,0.085-1.262,0.185-1.886,0.297c-0.083-1.758-0.587-3.553-1.274-5.097   c-2.277-5.133-7.277-7.969-12.535-9.285c-0.13-0.033-0.25-0.042-0.367-0.041c-0.461-0.058-0.938,0.117-1.23,0.652   c-0.561,1.021-0.978,2.082-1.146,3.199c-5.817-2.882-13.817-1.415-18.681,2.56c-1.309,1.068-2.496,2.499-3.335,4.094   c-0.845-1.563-2.032-2.963-3.313-4.094c-4.815-4.249-12.856-5.206-18.678-2.535c-0.166-1.126-0.584-2.195-1.148-3.223   c-0.293-0.535-0.77-0.71-1.23-0.652c-0.118-0.001-0.239,0.008-0.369,0.041c-5.168,1.293-10.075,4.042-12.421,9.026   c-0.754,1.604-1.303,3.498-1.389,5.346c-0.63-0.109-1.26-0.204-1.886-0.288c-0.56-0.075-0.933,0.163-1.126,0.523   c-0.163,0.14-0.304,0.32-0.399,0.555c-0.246,0.61-0.456,1.234-0.65,1.863c-0.079,0.245-0.154,0.493-0.228,0.745   c0,0.001,0,0.001,0,0.002c-0.837,2.876-1.347,6.235-1.347,10.163c0,10.087,6.909,21.971,20.535,35.321   c10.143,9.938,20.414,17.091,21.552,17.876c0.39,0.268,0.82,0.457,1.271,0.562c0.257,0.119,0.552,0.161,0.836,0.123   c0.272,0.036,0.553,0,0.803-0.109c0.479-0.102,0.934-0.295,1.342-0.576c0.451-0.311,11.184-7.714,21.553-17.874   c13.625-13.351,20.533-25.235,20.533-35.323C93.701,32.433,92.871,28.336,91.584,24.996z M74.52,12.402   c4.164,1.219,8.13,3.525,9.875,7.701c0.562,1.345,0.927,2.886,0.933,4.385c-0.166,0.009-0.337,0.043-0.511,0.119   c-0.203,0.089-0.404,0.188-0.606,0.284c-0.93,0.329-1.839,0.727-2.718,1.227c-0.794,0.451-1.523,0.99-2.197,1.589   c0.15-1.643,0.113-3.308-0.158-4.904c-0.531-3.133-2.529-5.848-5.021-7.792c0-0.011,0.002-0.02,0-0.031   C74.032,14.039,74.189,13.215,74.52,12.402z M50.917,29.799c1.167,0,2.337,0,3.505,0c-0.047,0.375-0.088,0.74-0.138,1.079   c-0.31,2.104-0.885,4.182-1.61,6.178c-0.305,0.835-0.902,2.516-1.757,3.561C50.917,37.012,50.917,33.405,50.917,29.799z    M24.422,12.402c0.326,0.805,0.481,1.623,0.404,2.552c-2.508,1.942-4.347,4.757-5.022,7.848c-0.346,1.581-0.344,3.281-0.161,4.949   c-0.571-0.511-1.181-0.985-1.839-1.417c-0.98-0.642-2.038-1.129-3.138-1.51c-0.155-0.072-0.307-0.149-0.464-0.217   c-0.201-0.088-0.398-0.126-0.587-0.125c0.012-1.407,0.352-2.827,0.831-4.125C16.041,16.038,20.207,13.638,24.422,12.402z    M8.341,34.519c-0.015,0.196-0.025,0.332-0.024,0.293C8.323,34.713,8.334,34.618,8.341,34.519z M47.91,67.412   c0,5.215,0,10.429,0,15.643c0,1.449,0,2.9,0,4.352c-3.091-2.203-11.605-8.502-20.043-16.768c-1.268-1.242-2.57-2.568-3.871-3.959   c0.575,0.2,1.166,0.365,1.779,0.484c2.953,0.569,6.263,0.443,9.125-0.51c1.096-0.364,0.626-2.103-0.479-1.735   c-2.385,0.793-4.934,0.874-7.417,0.62c-2.434-0.248-4.577-1.371-6.515-2.79c-4.75-5.601-9.043-11.937-11.054-18.201   c-0.07-0.293-0.137-0.591-0.201-0.887c0,0-1.164-4.534-0.926-8.322c0.054-0.869,0.085-1.366,0.1-1.618   c0.271-2.783,0.84-5.19,1.605-7.268c1.326,0.219,2.632,0.526,3.885,0.987c4.712,2.39,8.446,6.542,11.443,10.803   c3.44,4.888,6.198,10.571,7.005,16.538c0.232,1.72,2.833,0.984,2.604-0.717c-0.839-6.202-3.766-12.076-7.277-17.184   c-1.375-2-2.93-3.988-4.661-5.812c-0.807-2.656-1.093-5.816-0.374-8.503c1.147-4.29,5.309-7.134,9.483-7.898   c2.791-0.511,6.129,0.224,8.744,1.103c3.434,1.154,7.158,4.984,7.158,8.824c0,1.135,0,2.271,0,3.406c-1.257,0-2.515,0-3.772,0   c-0.026,0-0.049,0.005-0.075,0.007c-0.208-0.79-0.529-1.537-1.099-2.175c-0.389-0.435-1.044-0.653-1.61-0.498   c-0.6,0.166-0.965,0.937-0.952,0.92c-0.66,0.825-2.509-0.75-2.908-1.288c-0.645-0.873-0.778-2.072-0.933-3.113   c-0.285-1.93-0.769-3.431-2.926-3.75c-4.875-0.723-7.964,4.942-8.23,9.085c-0.015,0.096-0.021,0.199-0.015,0.309   c0,0.003-0.001,0.005-0.001,0.007l0,0v0.001c0,0.002,0.001,0.004,0.001,0.007c-0.003,0.113,0.007,0.218,0.026,0.316   c0.632,8.136,7.696,11.706,14.197,15.222c3.04,1.644,4.995,3.85,6.275,7.08c1.131,2.852,1.641,5.94,1.883,8.985   C48.104,61.889,47.91,64.64,47.91,67.412z M48.023,29.799c0,2.74,0,5.48,0,8.22c0,0.86,0,1.72,0,2.58   c-0.758-0.949-1.297-2.386-1.602-3.141c-0.809-2.003-1.345-4.136-1.714-6.261c-0.08-0.457-0.139-0.927-0.204-1.398   C45.677,29.799,46.85,29.799,48.023,29.799z M49.464,52.076c-0.615-2.34-1.534-4.616-2.873-6.624   c-2.093-3.14-5.262-4.581-8.47-6.351c-4.78-2.637-9.586-5.62-9.919-11.598v0c0,0,0,0,0,0c0.073-2.423,1.302-5.594,3.775-6.527   c1.307-0.493,1.773-0.362,1.989,0.886c0.178,1.026,0.29,2.035,0.617,3.029c0.713,2.16,2.808,3.987,5.108,4.209   c0.687,0.067,1.32-0.032,1.9-0.331c0.021,0.086,0.043,0.171,0.065,0.254c0.25,0.937,0.292,1.936,0.446,2.892   c0.298,1.854,0.799,3.679,1.412,5.452c0.948,2.739,2.466,6.232,5.616,6.801c0.107,0.037,0.221,0.055,0.338,0.052   c0.116,0.003,0.229-0.015,0.338-0.052c3.178-0.571,4.622-4.066,5.616-6.801c0.604-1.658,1.03-3.385,1.354-5.118   c0.169-0.903,0.248-1.819,0.397-2.725c0.042-0.25,0.103-0.495,0.171-0.737c0.471,0.228,1,0.323,1.529,0.349   c2.254,0.113,4.533-1.896,5.326-3.864c0.4-0.991,0.567-2.011,0.721-3.064c0.18-1.26,0.209-1.67,1.656-1.35   c2.723,0.603,4.086,4.202,4.159,6.645c0,0,0,0,0,0v0c-0.214,3.849-2.216,6.58-5.278,8.772c-3.287,2.354-7.349,3.669-10.455,6.234   C52.068,44.935,50.416,48.401,49.464,52.076z M89.627,44.155c-0.059,0.125-0.062,0.286-0.096,0.427   c-2.048,6.353-6.438,12.777-11.268,18.431c-1.631,1.137-3.393,2.028-5.388,2.414c-2.639,0.51-5.62,0.338-8.168-0.509   c-1.104-0.367-1.574,1.371-0.479,1.735c2.723,0.904,5.815,1.041,8.636,0.588c0.718-0.115,1.406-0.291,2.071-0.513   c-1.285,1.373-2.571,2.683-3.824,3.909c-8.435,8.266-17.096,14.66-20.082,16.793c0-7.149,0-14.299,0-21.447   c0-4.019-0.104-7.879,0.733-11.858c0.641-3.039,1.749-6.109,3.833-8.467c1.156-1.308,2.618-2.069,4.133-2.888   c2.006-1.084,4.012-2.169,5.938-3.389c4.333-2.741,7.335-6.347,7.741-11.544c0.02-0.102,0.031-0.211,0.029-0.329   c0-0.001,0-0.003,0-0.004v-0.001l0,0c0-0.003,0-0.006,0-0.009c0.004-0.108,0-0.209-0.016-0.304   c-0.254-4.298-3.127-9.133-7.871-9.136c-2.151-0.002-2.953,1.587-3.233,3.437c-0.161,1.063-0.286,2.138-0.767,3.115   c-0.313,0.635-2.174,2.419-2.979,1.794c-0.117-0.091-0.272-0.467-0.132-0.097c-0.134-0.35-0.316-0.642-0.646-0.833   c-0.617-0.362-1.324-0.161-1.833,0.277c-0.671,0.579-1.027,1.409-1.245,2.298C54.63,28.019,54.537,28,54.432,28   c-1.172,0-2.344,0-3.515,0c0-1.126,0-2.252,0-3.378c0-3.761,3.478-7.344,6.737-8.694c6.697-2.774,15.73-1.377,18.501,6.172   c0.999,2.723,0.527,6.098-0.187,8.818l0.05,0.179c-1.592,1.686-3.038,3.507-4.359,5.341c-3.705,5.145-6.732,11.294-7.589,17.628   c-0.23,1.701,2.371,2.437,2.603,0.717c0.789-5.829,3.447-11.25,6.697-16.09c3.062-4.561,7.109-9.02,12.139-11.438   c1.123-0.37,2.292-0.623,3.453-0.808c0.831,2.254,1.434,4.896,1.672,7.988c0.021,0.633-0.035-0.413,0.004,1.904   C90.676,38.635,90.34,42.65,89.627,44.155z"/></g></svg>